<?xml version="1.0" encoding="UTF-8" standalone="no"?>
<svg
   xmlns:dc="http://purl.org/dc/elements/1.1/"
   xmlns:cc="http://creativecommons.org/ns#"
   xmlns:rdf="http://www.w3.org/1999/02/22-rdf-syntax-ns#"
   xmlns:svg="http://www.w3.org/2000/svg"
   xmlns="http://www.w3.org/2000/svg"
   xmlns:sodipodi="http://sodipodi.sourceforge.net/DTD/sodipodi-0.dtd"
   xmlns:inkscape="http://www.inkscape.org/namespaces/inkscape"
   inkscape:version="1.0 (4035a4fb49, 2020-05-01)"
   sodipodi:docname="favicon.svg"
   viewBox="0 0 30 30"
   height="30"
   width="30"
   id="svg10"
   version="1.1">
  <metadata
     id="metadata16">
    <rdf:RDF>
      <cc:Work
         rdf:about="">
        <dc:format>image/svg+xml</dc:format>
        <dc:type
           rdf:resource="http://purl.org/dc/dcmitype/StillImage" />
        <dc:title></dc:title>
      </cc:Work>
    </rdf:RDF>
  </metadata>
  <defs
     id="defs14" />
  <sodipodi:namedview
     inkscape:current-layer="g18"
     inkscape:window-maximized="1"
     inkscape:window-y="-8"
     inkscape:window-x="-8"
     inkscape:cy="15.240922"
     inkscape:cx="17.86976"
     inkscape:zoom="16"
     showgrid="true"
     id="namedview12"
     inkscape:window-height="1027"
     inkscape:window-width="1920"
     inkscape:pageshadow="2"
     inkscape:pageopacity="0"
     guidetolerance="10"
     gridtolerance="10"
     objecttolerance="10"
     borderopacity="1"
     bordercolor="#666666"
     pagecolor="#ffffff">
    <inkscape:grid
       visible="false"
       id="grid969"
       type="xygrid" />
  </sodipodi:namedview>
  <g
     id="g18"
     inkscape:label="Image"
     inkscape:groupmode="layer">
    <path
       d="m 73.767578,37.457031 -1.09375,1.679688 c 0.360524,-0.210985 0.717135,-0.42795 1.074219,-0.644531 a 23.697632,25.608732 0 0 0 0.01953,-1.035157 z M 73.5625,40.824219 c -1.033103,0.604228 -2.073629,1.194147 -3.130859,1.757812 l -0.738282,1.132813 c 0.819337,-0.02696 2.493927,-0.07812 3.38086,-0.107422 A 23.697632,25.608732 0 0 0 73.5625,40.824219 Z m -1.005859,4.71289 c -1.373081,0.04213 -2.721425,0.08596 -4.132813,0.126953 l -0.898437,1.38086 c 1.479498,-0.184549 3.12141,-0.386498 4.730468,-0.583984 a 23.697632,25.608732 0 0 0 0.300782,-0.923829 z m -1.097657,2.949219 c -1.605458,0.197866 -3.819921,0.458006 -5.291015,0.642578 l -4.78125,7.345703 c 0.812067,0.61609 1.600794,1.244672 2.398437,1.867188 a 23.697632,25.608732 0 0 0 7.673828,-9.855469 z m -11.117187,9.59375 -0.837891,1.285156 c 0.794329,-0.0263 1.588517,-0.05459 2.382813,-0.08203 -0.513518,-0.401463 -1.022145,-0.806014 -1.544922,-1.203126 z m -1.628906,3.222656 c -0.159482,0.0052 -0.319033,0.0085 -0.478516,0.01367 L 58.074219,61.5625 a 23.697632,25.608732 0 0 0 0.638672,-0.259766 z"
       style="fill:#ffffff"
       id="path22" />
    <path
       d="m 38.251953,33.068359 c -0.329452,0.03444 -0.64458,0.06495 -0.974609,0.09961 l -3.333985,3.958984 c 0.04196,0.03021 0.08304,0.06158 0.125,0.0918 a 6.975513,5.8288531 0 0 0 4.183594,-4.150391 z"
       style="fill:#ffffff"
       id="path24" />
    <path
       d="m 36.310547,42.044922 0.746094,0.746094 a 3.4399788,0.76443976 0 0 0 1.382812,-0.146485 c -0.289843,-0.19969 -0.579335,-0.399875 -0.869141,-0.599609 z"
       style="fill:#ffffff"
       id="path26" />
    <path
       d="m 45.933594,49.433594 0.101562,0.455078 c 0.07018,-0.01007 0.148639,-0.02316 0.21875,-0.0332 0.122544,-0.141714 0.248341,-0.280339 0.371094,-0.421875 z m 12.115234,0.757812 c -1.476425,0.194143 -3.130147,0.405324 -4.505859,0.591797 1.169614,0.817258 2.344268,1.627474 3.498047,2.466797 0.1126,0.08191 0.217876,0.164241 0.330078,0.246094 a 12.140158,12.127808 0 0 0 0.677734,-3.304688 z m -7.265625,0.980469 c -1.302168,0.466413 -2.693368,0.954742 -4.138672,1.455078 l 1.570313,7.064453 c 0.22719,-0.0053 0.454454,-0.006 0.68164,-0.01172 1.234586,-0.03088 2.468646,-0.07462 3.703125,-0.109376 a 12.140158,12.127808 0 0 0 3.970703,-4.291015 C 56.35948,55.12508 56.159501,54.970801 55.947266,54.816406 54.243349,53.576862 52.515564,52.371554 50.783203,51.171875 Z"
       style="fill:#ffffff"
       id="path28" />
    <path
       d="m 64.212891,37.552734 1.794921,5.134766 c 3.173137,-1.54971 6.270975,-3.23712 9.238282,-5.134766 z m 14.472656,0 c -0.527491,0.371711 -1.058814,0.73518 -1.591797,1.087891 -2.865015,1.895972 -5.870425,3.574856 -8.945312,5.123047 1.965812,-0.06433 6.000132,-0.186776 8.398437,-0.265625 a 15.479905,9.8421621 0 0 0 3.146484,-5.945313 z m -5.376953,7.962891 c -2.066383,0.06397 -4.090423,0.130072 -6.246094,0.191406 l 0.466797,1.335938 c 0.6975,-0.087 1.299778,-0.164113 2.025391,-0.253907 a 15.479905,9.8421621 0 0 0 3.753906,-1.273437 z"
       style="fill:#ffffff"
       id="path30" />
    <path
       d="m 55.132812,31.361328 c -3.534825,0.343719 -7.114538,0.707505 -10.875,1.089844 a 13.377696,12.231036 0 0 0 -6.214843,7.599609 c 1.970882,1.358897 3.940167,2.719995 5.910156,4.080078 2.761093,0.02585 5.296849,0.04061 7.378906,0.02539 1.58974,-1.7083 3.219833,-3.376625 4.921875,-4.974609 1.635074,-1.53511 3.220421,-2.950205 4.789063,-4.289063 a 13.377696,12.231036 0 0 0 -5.910157,-3.531249 z m 7.126954,5 c -1.587115,1.356562 -3.187789,2.77564 -4.84375,4.337891 -1.181825,1.114945 -2.321689,2.269495 -3.445313,3.441406 2.858192,-0.04073 5.993885,-0.124212 9.484375,-0.230469 0.314827,-0.146194 0.625629,-0.300938 0.939453,-0.449218 A 13.377696,12.231036 0 0 0 64.404297,43 13.377696,12.231036 0 0 0 62.259766,36.361328 Z M 37.683594,42.123047 A 13.377696,12.231036 0 0 0 37.648438,43 a 13.377696,12.231036 0 0 0 0.04883,1.046875 c 0.866675,0.01312 2.02881,0.03807 2.84375,0.04883 -0.953112,-0.656681 -1.904416,-1.315881 -2.857422,-1.972656 z m 26.365234,3.675781 c -0.05049,0.0014 -0.09203,0.0025 -0.142578,0.0039 -1.775532,0.819102 -3.563325,1.607584 -5.355469,2.378907 1.464302,-0.190905 3.274939,-0.414329 4.886719,-0.619141 a 13.377696,12.231036 0 0 0 0.611328,-1.763672 z m -5.105469,0.126953 c -2.266512,0.05357 -4.511036,0.09822 -6.783203,0.138672 -0.698949,0.75964 -1.382276,1.534475 -2.068359,2.306641 0.321765,0.221821 0.643212,0.444001 0.964844,0.666015 2.495089,-0.901949 4.715995,-1.735542 6.222656,-2.380859 0.556112,-0.238188 1.108576,-0.488824 1.664062,-0.730469 z m -9.388671,0.177735 c -0.904702,0.01371 -1.798183,0.02013 -2.699219,0.03125 0.150754,0.104593 0.302419,0.207833 0.453125,0.3125 0.402396,0.279468 0.805879,0.557441 1.208984,0.835937 0.347078,-0.391931 0.687229,-0.790678 1.03711,-1.179687 z m -6.00586,0.06836 c -1.830849,0.01544 -3.638332,0.02421 -5.435547,0.02539 a 13.377696,12.231036 0 0 0 2.517578,4.498046 c 1.862878,-0.278246 3.821447,-0.581816 5.623047,-0.839843 0.327798,-0.379076 0.662766,-0.751269 0.992188,-1.128907 -0.340561,-0.235604 -0.681374,-0.470806 -1.021485,-0.707031 -0.890176,-0.618273 -1.784038,-1.231508 -2.675781,-1.847655 z m 18.708984,3.46875 c -3.090281,0.395961 -6.04846,0.780285 -8.707031,1.140625 1.167993,0.816449 2.337875,1.630458 3.490235,2.46875 0.186744,0.135848 0.363172,0.270554 0.548828,0.40625 a 13.377696,12.231036 0 0 0 4.667968,-4.015625 z m -11.474609,1.53125 c -1.423178,0.509756 -2.930269,1.039983 -4.523437,1.589844 -0.355862,0.414853 -0.714123,0.827626 -1.070313,1.242187 a 13.377696,12.231036 0 0 0 5.835938,1.226563 13.377696,12.231036 0 0 0 4.5,-0.712891 c -1.567638,-1.133408 -3.15236,-2.243374 -4.742188,-3.345703 z"
       style="fill:#ffffff"
       id="path32" />
    <path
       d="m 73.974609,45.494141 c -3.319036,0.103521 -6.498325,0.212178 -10.068359,0.308593 -0.916908,0.422995 -1.843267,0.819999 -2.765625,1.228516 a 14.046579,21.977642 0 0 0 -0.002,0.002 14.046579,21.977642 0 0 0 -0.886719,0.933594 c 4.184971,-0.540523 9.122024,-1.154935 14.615235,-1.824219 a 14.046579,21.977642 0 0 0 -0.892579,-0.648437 z m 2.697266,2.359375 c -6.93477,0.842145 -13.048599,1.608225 -18.037109,2.261718 a 14.046579,21.977642 0 0 0 -1.660157,3.087891 c 0.02192,0.01593 0.0445,0.03095 0.06641,0.04687 2.704432,1.967357 5.283947,3.922452 7.816406,5.925781 5.64046,-0.203786 11.280391,-0.427105 16.919922,-0.658203 A 14.046579,21.977642 0 0 0 76.671875,47.853516 Z m -20.425781,7.183593 a 14.046579,21.977642 0 0 0 -1.201172,4.460938 c 2.280134,-0.06851 4.559999,-0.136099 6.839844,-0.214844 -1.840315,-1.423143 -3.704095,-2.835092 -5.638672,-4.246094 z m 25.892578,5.378907 c -5.004324,0.205113 -10.008651,0.403987 -15.013672,0.589843 2.271265,1.852349 4.51887,3.751104 6.773438,5.783203 0.287791,0.259394 0.493043,0.459234 0.767578,0.708985 2.445595,-0.509882 5.012588,-1.041687 7.892578,-1.628906 a 14.046579,21.977642 0 0 0 0,-0.126953 14.046579,21.977642 0 0 0 -0.419922,-5.326172 z m -17.910156,0.695312 c -3.161902,0.113011 -6.323914,0.212677 -9.486328,0.306641 a 14.046579,21.977642 0 0 0 -0.275391,4.324219 14.046579,21.977642 0 0 0 0.550781,6.085937 c 3.122749,-0.732458 6.248219,-1.451756 9.378906,-2.148437 1.7222,-0.383247 4.515833,-0.983062 7.955078,-1.705079 -2.695403,-2.419109 -5.381124,-4.678964 -8.123046,-6.863281 z m 18.269531,6.673828 c -2.049029,0.417722 -4.095935,0.844462 -6.142578,1.273438 1.904275,1.769811 3.621218,3.408988 5.171875,4.953125 a 14.046579,21.977642 0 0 0 0.970703,-6.226563 z m -8.441406,1.751953 c -3.095514,0.656086 -6.188807,1.326284 -9.277344,2.013672 -3.124121,0.695308 -6.243113,1.415087 -9.359375,2.146485 a 14.046579,21.977642 0 0 0 3.039062,7.390625 C 61.819039,80.922316 69.64163,80.559435 79.132812,80.125 a 14.046579,21.977642 0 0 0 1.775391,-4.042969 C 78.897498,74.060277 76.70423,71.963518 74.056641,69.537109 Z m 3.83789,12.560547 c -7.64875,0.352047 -15.047674,0.69328 -18.123047,0.845703 a 14.046579,21.977642 0 0 0 1.855469,1.951172 c 5.194056,-0.598311 10.382938,-1.256903 15.574219,-1.884765 a 14.046579,21.977642 0 0 0 0.693359,-0.91211 z m -3.226562,3.398438 c -3.542318,0.350739 -7.083862,0.705488 -10.623047,1.080078 a 14.046579,21.977642 0 0 0 4.46875,1.142578 14.046579,21.977642 0 0 0 6.154297,-2.222656 z"
       style="fill:#ffffff"
       id="path36" />
    <path
       d="m 67.853516,48.923828 c -2.259136,0.281748 -4.217539,0.541728 -6.216797,0.798828 a 6.975513,10.702157 0 0 0 -2.771485,4.88086 c 2.041123,1.509359 4.023851,3.025962 5.976563,4.572265 2.46624,-0.08908 4.932427,-0.175005 7.398437,-0.271484 a 6.975513,10.702157 0 0 0 0,-0.04297 6.975513,10.702157 0 0 0 -4.386718,-9.937499 z M 58.4375,56.666016 a 6.975513,10.702157 0 0 0 -0.148438,2.195312 6.975513,10.702157 0 0 0 0.0098,0.541016 c 1.19344,-0.03858 2.386713,-0.07793 3.580078,-0.119141 -1.134032,-0.878263 -2.27713,-1.750291 -3.44144,-2.617187 z m 13.685547,4.154296 c -1.671281,0.06525 -3.342292,0.123494 -5.013672,0.185547 1.376075,1.123151 2.745348,2.260341 4.105469,3.4375 a 6.975513,10.702157 0 0 0 0.908203,-3.623047 z m -7.916016,0.291016 c -1.910874,0.06828 -3.82137,0.135438 -5.732422,0.197266 a 6.975513,10.702157 0 0 0 6.50586,8.246094 c 0.587687,-0.129779 1.691483,-0.362009 2.466797,-0.529297 a 6.975513,10.702157 0 0 0 2.886718,-2.814453 c -2.024988,-1.762361 -4.059882,-3.450356 -6.126953,-5.09961 z"
       style="fill:#ffffff"
       id="path38" />
    <ellipse
       ry="14.873985"
       rx="14.873984"
       cy="15"
       cx="14.999999"
       id="path144"
       style="fill:#d1d1d1;stroke:#000000;stroke-width:0.452;stroke-miterlimit:4;stroke-dasharray:none;stroke-opacity:1;fill-opacity:1" />
    <text
       transform="scale(0.91400668,1.0940839)"
       id="text973"
       y="18.274408"
       x="2.7941127"
       style="font-style:normal;font-variant:normal;font-weight:normal;font-stretch:normal;font-size:13.0575px;line-height:1.25;font-family:Century;-inkscape-font-specification:'Century, Normal';font-variant-ligatures:normal;font-variant-caps:normal;font-variant-numeric:normal;font-variant-east-asian:normal;fill:#666666;fill-opacity:1;stroke:none;stroke-width:0.771742;"
       xml:space="preserve"><tspan
         style="font-style:normal;font-variant:normal;font-weight:normal;font-stretch:normal;font-size:13.0575px;font-family:Century;-inkscape-font-specification:'Century, Normal';font-variant-ligatures:normal;font-variant-caps:normal;font-variant-numeric:normal;font-variant-east-asian:normal;stroke-width:0.771742;fill:#666666;fill-opacity:1;"
         y="18.274408"
         x="2.7941127"
         id="tspan971"
         sodipodi:role="line">M</tspan></text>
    <text
       transform="scale(0.9828494,1.0174499)"
       id="text977"
       y="19.732931"
       x="19.862007"
       style="font-style:normal;font-variant:normal;font-weight:normal;font-stretch:normal;font-size:15.1989px;line-height:1.25;font-family:'Mongolian Baiti';-inkscape-font-specification:'Mongolian Baiti, Normal';font-variant-ligatures:normal;font-variant-caps:normal;font-variant-numeric:normal;font-variant-east-asian:normal;fill:#666666;fill-opacity:1;stroke:none;stroke-width:1.13993;"
       xml:space="preserve"><tspan
         style="stroke-width:1.13993;fill:#666666;fill-opacity:1;"
         y="19.732931"
         x="19.862007"
         id="tspan975"
         sodipodi:role="line">F</tspan></text>
    <text
       transform="scale(0.98169022,1.0186513)"
       id="text981"
       y="19.603214"
       x="13.686571"
       style="font-style:normal;font-variant:normal;font-weight:normal;font-stretch:normal;font-size:10.1138px;line-height:1.25;font-family:'Microsoft Sans Serif';-inkscape-font-specification:'Microsoft Sans Serif, Normal';font-variant-ligatures:normal;font-variant-caps:normal;font-variant-numeric:normal;font-variant-east-asian:normal;fill:#666666;fill-opacity:1;stroke:none;stroke-width:0.154393;stroke-miterlimit:4;stroke-dasharray:none;"
       xml:space="preserve"><tspan
         style="font-style:normal;font-variant:normal;font-weight:normal;font-stretch:normal;font-size:10.1138px;font-family:'Microsoft Sans Serif';-inkscape-font-specification:'Microsoft Sans Serif, Normal';font-variant-ligatures:normal;font-variant-caps:normal;font-variant-numeric:normal;font-variant-east-asian:normal;stroke-width:0.154393;stroke-miterlimit:4;stroke-dasharray:none;fill:#666666;fill-opacity:1;"
         y="19.603214"
         x="13.686571"
         id="tspan979"
         sodipodi:role="line">&amp;</tspan></text>
    <path
       id="path1013"
       d="M 6,22 H 24"
       style="fill:#6b6b6b;stroke:#686868;stroke-width:0.154349;stroke-linecap:butt;stroke-linejoin:miter;stroke-miterlimit:4;stroke-dasharray:none;stroke-opacity:1;fill-opacity:1" />
    <text
       xml:space="preserve"
       style="font-style:normal;font-variant:normal;font-weight:normal;font-stretch:normal;font-size:13.0575px;line-height:1.25;font-family:Century;-inkscape-font-specification:'Century, Normal';font-variant-ligatures:normal;font-variant-caps:normal;font-variant-numeric:normal;font-variant-east-asian:normal;fill:#000000;fill-opacity:1;stroke:none;stroke-width:0.771742"
       x="2.4473324"
       y="18.393251"
       id="text973-4"
       transform="scale(0.91400668,1.0940839)"><tspan
         sodipodi:role="line"
         id="tspan971-7"
         x="2.4473324"
         y="18.393251"
         style="font-style:normal;font-variant:normal;font-weight:normal;font-stretch:normal;font-size:13.0575px;font-family:Century;-inkscape-font-specification:'Century, Normal';font-variant-ligatures:normal;font-variant-caps:normal;font-variant-numeric:normal;font-variant-east-asian:normal;fill:#000000;fill-opacity:1;stroke-width:0.771742">M</tspan></text>
    <text
       xml:space="preserve"
       style="font-style:normal;font-variant:normal;font-weight:normal;font-stretch:normal;font-size:15.1989px;line-height:1.25;font-family:'Mongolian Baiti';-inkscape-font-specification:'Mongolian Baiti, Normal';font-variant-ligatures:normal;font-variant-caps:normal;font-variant-numeric:normal;font-variant-east-asian:normal;fill:#000000;fill-opacity:1;stroke:none;stroke-width:1.13993"
       x="19.539516"
       y="19.860723"
       id="text977-9"
       transform="scale(0.98284938,1.0174499)"><tspan
         sodipodi:role="line"
         id="tspan975-3"
         x="19.539516"
         y="19.860723"
         style="fill:#000000;fill-opacity:1;stroke-width:1.13993">F</tspan></text>
    <text
       xml:space="preserve"
       style="font-style:normal;font-variant:normal;font-weight:normal;font-stretch:normal;font-size:10.1138px;line-height:1.25;font-family:'Microsoft Sans Serif';-inkscape-font-specification:'Microsoft Sans Serif, Normal';font-variant-ligatures:normal;font-variant-caps:normal;font-variant-numeric:normal;font-variant-east-asian:normal;fill:#000000;fill-opacity:1;stroke:none;stroke-width:0.154393;stroke-miterlimit:4;stroke-dasharray:none"
       x="13.363702"
       y="19.730856"
       id="text981-5"
       transform="scale(0.98169021,1.0186513)"><tspan
         sodipodi:role="line"
         id="tspan979-7"
         x="13.363702"
         y="19.730856"
         style="font-style:normal;font-variant:normal;font-weight:normal;font-stretch:normal;font-size:10.1138px;font-family:'Microsoft Sans Serif';-inkscape-font-specification:'Microsoft Sans Serif, Normal';font-variant-ligatures:normal;font-variant-caps:normal;font-variant-numeric:normal;font-variant-east-asian:normal;fill:#000000;fill-opacity:1;stroke-width:0.154393;stroke-miterlimit:4;stroke-dasharray:none">&amp;</tspan></text>
    <path
       style="fill:none;stroke:#000000;stroke-width:0.154349;stroke-linecap:butt;stroke-linejoin:miter;stroke-miterlimit:4;stroke-dasharray:none;stroke-opacity:1"
       d="M 5.8632815,22.050781 H 23.863281"
       id="path1013-0" />
  </g>
</svg>
